# xmcd
#
# Track frame offsets:
#	150
#	17144
#	35723
#	55929
#	76043
#	89977
#	105200
#	120234
#	139375
#	155378
#	173823
#	188004
#	208774
#	224466
#	240753
#	254754
#	270529
#	287723
#	306957
#	320555
#
# Disc length: 4530 seconds
#
# Revision: 0
# Processed by: cddbd v1.5.2PL0 Copyright (c) Steve Scherf et al.
# Submitted via: EZCDAudioConverter 3.1.0.1
#
DISCID=1d11b014
DTITLE=Nu Urban Traxx Volume 226 US
DYEAR=2016
DGENRE=blues
TTITLE0=Wale - My PYT
TTITLE1=Drake - Controlla
TTITLE2=T.I. ft. Marsha Ambrosius - DOPE
TTITLE3=Kanye West ft. Kid Cudi - Father Stretch My Hands (Part 1 and 2)
TTITLE4=DJ Khaled ft. Drake - For Free
TTITLE5=Chris Brown - Grass Ain't Greener
TTITLE6=YG ft. Drake - Why You Always Hatin'
TTITLE7=K. Michelle - Ain't You
TTITLE8=Kid Ink ft. Jeremih and Spice - Nasty
TTITLE9=Migos - Say Sum
TTITLE10=Ty Dolla $ign ft. Joe Moses - Wavy
TTITLE11=Eric Benet - Sunshine
TTITLE12=Wiz Khalifa ft. Lil Uzi Vert - Pull Up
TTITLE13=Fifth Harmony ft. Ty Dolla $ign - Work From Home
TTITLE14=Gucci Mane - First Day Out The Feds
TTITLE15=Bankroll Mafia ft. T.I., Shad Da God, Young Thug, and London Jae - Ou
TTITLE15=t My Face
TTITLE16=Jaheim - Struggle Love
TTITLE17=DJ Drama ft. Chris Brown, Skeme and Lyquin - Wishing
TTITLE18=Post Malone - Go Flex
TTITLE19=Lloyd - Tru
EXTD=
EXTT0=
EXTT1=
EXTT2=
EXTT3=
EXTT4=
EXTT5=
EXTT6=
EXTT7=
EXTT8=
EXTT9=
EXTT10=
EXTT11=
EXTT12=
EXTT13=
EXTT14=
EXTT15=
EXTT16=
EXTT17=
EXTT18=
EXTT19=
PLAYORDER=
